<?xml version="1.0" encoding="UTF-8"?>
<!-- Generator: Adobe Illustrator 19.1.0, SVG Export Plug-In . SVG Version: 6.00 Build 0)  -->
<svg xmlns="http://www.w3.org/2000/svg" xmlns:xlink="http://www.w3.org/1999/xlink" xmlns:dc="http://purl.org/dc/elements/1.1/" xmlns:cc="http://creativecommons.org/ns#" xmlns:rdf="http://www.w3.org/1999/02/22-rdf-syntax-ns#" version="1.1" id="DESIGNS" x="0px" y="0px" width="32px" height="32px" viewBox="0 0 32 32" style="enable-background:new 0 0 32 32;" xml:space="preserve">
<title property="dc:title">to pin</title><desc property="dc:description">An icon for "pin" from the Isometric series on to [icon]. Downloaded from http://www.toicon.com/icons/isometric_pin by 122.179.138.31 on 2019-04-05. Licensed CC-BY, see http://toicon.com/license/ for details.</desc>
<g>
	<path class="isometric_acht" d="M20.995,15.479c0.024-0.712-0.452-1.438-1.488-1.978v-1.321c1.201-0.619,1.548-1.395,1.488-2.054   V8.606c-0.004-0.668-0.442-1.337-1.315-1.839c-1.767-1.018-4.623-1.023-6.379-0.012c-1.426,0.821-1.295,1.835-1.295,1.835v1.535   c-0.045,0.645,0.3,1.414,1.488,2.033c0,0,0,1.431,0,1.321c-1.038,0.535-1.513,1.259-1.488,1.971v1.489   c-0.049,0.702,0.381,1.414,1.315,1.952c1.767,1.018,4.623,1.023,6.379,0.012c0.935-0.539,1.36-1.256,1.295-1.964V15.479z" style="fill: #F05A28;"/>
	<path class="isometric_negen" d="M20.995,15.421v1.519c0.065,0.707-0.36,1.425-1.295,1.964c-1.756,1.011-4.612,1.006-6.379-0.012   c-0.934-0.538-1.364-1.25-1.315-1.952v-1.535c0.004,0.665,0.432,1.331,1.315,1.839c1.767,1.018,4.623,1.023,6.379,0.012   C20.578,16.75,20.998,16.086,20.995,15.421z M20.995,8.606c0.013,2.387-5.004,3.362-7.675,1.823   c-0.883-0.509-1.311-1.175-1.315-1.839v1.535l0,0c-0.045,0.645,0.3,1.414,1.488,2.033v1.782h0.006   c-0.015,0.456,0.275,0.916,0.881,1.265c1.178,0.679,3.082,0.682,4.253,0.008c0.607-0.35,0.891-0.813,0.866-1.273h0.009v-1.761   c1.201-0.619,1.548-1.395,1.488-2.054l0,0V8.606z" style="fill: #BE1E2D;"/>
	<path class="isometric_elf" d="M15.5,19.583v5.537h0.002c0,0,0.997,1.878,0.998,1.88c0.001-0.001,0.999-1.88,1-1.88v-2.828   c-0.389-1.005-0.881-1.905-1.463-2.661C15.857,19.62,15.678,19.607,15.5,19.583z" style="fill: #72C0AB;"/>
	<path class="isometric_twaalf" d="M16.037,19.631c0.582,0.755,1.074,1.656,1.463,2.661v-2.701   C17.019,19.652,16.527,19.662,16.037,19.631z" style="fill: #569080;"/>
</g>
<metadata><work rdf:about=""><format>image/svg+xml</format><type rdf:resource="http://purl.org/dc/dcmitype/StillImage"/><license rdf:resource="http://creativecommons.org/licenses/by/4.0/"/><attributionname>Jo Szczepanska</attributionname><attributionurl>http://www.toicon.com/icons/isometric_pin</attributionurl></work></metadata></svg>
